#!OML:ASF F:\VICON\USERDATA\INSTALL\rory3\rory3.ASF
:FULLY-SPECIFIED
:DEGREES
290
root 10.9377 15.7145 -6.7253 -170.838 51.5922 -165.457
lowerback 9.57178 0.624026 6.01144
upperback -0.310953 1.71295 2.08922
thorax -5.60187 0.73522 -1.43734
lowerneck -9.65618 -9.23158 -13.5161
upperneck 20.2459 -12.5745 12.09
head 9.63139 -5.62485 4.92057
rclavicle 3.9291e-014 -3.57812e-015
rhumerus -30.0152 7.99288 -87.8834
rradius 38.8907
rwrist 4.12889
rhand -16.553 13.3329
rfingers 7.12502
rthumb 9.66662 -16.4253
lclavicle 3.9291e-014 -3.57812e-015
lhumerus -39.6617 16.9429 73.2756
lradius 18.6425
lwrist -11.1801
lhand -10.4593 14.0353
lfingers 7.12502
lthumb 15.5413 43.4308
rfemur 10.9796 4.28964 35.3544
rtibia 14.4257
rfoot -14.2986 -13.6975
rtoes 2.46754
lfemur -27.4938 -12.0538 -4.24104
ltibia 24.5218
lfoot -13.696 17.4791
ltoes -5.78209
291
root 11.0187 15.7079 -6.83216 -170.447 51.9483 -164.991
lowerback 9.45148 0.668736 6.29291
upperback -0.280456 1.79972 2.14643
thorax -5.4904 0.776218 -1.54379
lowerneck -9.62814 -9.22766 -13.5884
upperneck 20.3512 -12.5736 12.1369
head 9.67161 -5.62304 4.95246
rclavicle 2.39039e-014 3.06128e-014
rhumerus -30.0748 8.13764 -87.9857
rradius 38.8314
rwrist 4.04969
rhand -16.7064 13.5807
rfingers 7.12502
rthumb 9.51859 -16.1844
lclavicle 2.39039e-014 3.06128e-014
lhumerus -39.7733 17.151 73.1123
lradius 18.4786
lwrist -11.6566
lhand -10.1905 14.1373
lfingers 7.12502
lthumb 15.8002 43.5125
rfemur 11.7135 4.34335 35.3783
rtibia 14.0563
rfoot -14.1994 -13.2544
rtoes 3.4256
lfemur -27.4447 -12.1915 -3.84043
ltibia 24.3967
lfoot -13.6643 17.3947
ltoes -7.30579
292
root 11.1004 15.6983 -6.9361 -170.178 52.3639 -164.732
lowerback 9.36799 0.76494 6.38821
upperback -0.270661 1.93094 2.14913
thorax -5.42084 0.840538 -1.60983
lowerneck -9.62096 -9.23415 -13.5866
upperneck 20.4172 -12.5949 12.174
head 9.69915 -5.62699 4.96402
rclavicle 2.46431e-014 -1.19271e-014
rhumerus -30.0873 8.1246 -88.0952
rradius 38.7247
rwrist 4.0503
rhand -16.7075 13.5858
rfingers 7.12502
rthumb 9.51753 -16.1792
lclavicle 2.46431e-014 -1.19271e-014
lhumerus -39.8021 17.3442 72.9255
lradius 18.2411
lwrist -12.1543
lhand -10.0761 14.0964
lfingers 7.12502
lthumb 15.9104 43.4629
rfemur 12.3609 4.49875 35.3089
rtibia 13.7749
rfoot -14.0166 -13.0116
rtoes 2.85745
lfemur -27.3719 -12.1629 -3.61986
ltibia 24.4397
lfoot -13.85 17.1087
ltoes -7.75906
293
root 11.1819 15.6868 -7.04089 -169.972 52.7512 -164.556
lowerback 9.29547 0.871081 6.42342
upperback -0.258918 2.06738 2.13409
thorax -5.35572 0.908384 -1.66138
lowerneck -9.71216 -9.30382 -13.5959
upperneck 20.5719 -12.7037 12.2279
head 9.79185 -5.66476 4.96805
rclavicle -7.97189e-014 -4.49253e-014
rhumerus -30.0715 7.92391 -88.1807
rradius 38.5873
rwrist 4.10197
rhand -16.5775 13.5297
rfingers 7.12502
rthumb 9.64302 -16.2296
lclavicle -7.97189e-014 -4.49253e-014
lhumerus -39.7704 17.3324 72.9021
lradius 18.0929
lwrist -12.4211
lhand -10.1203 14.1391
lfingers 7.12502
lthumb 15.8678 43.509
rfemur 12.8697 4.6816 35.1952
rtibia 13.7576
rfoot -13.8989 -12.7934
rtoes 2.22228
lfemur -27.2281 -11.8732 -3.57431
ltibia 24.5405
lfoot -13.7255 16.6815
ltoes -8.10411
294
root 11.2621 15.674 -7.15226 -169.756 53.0308 -164.292
lowerback 9.22746 0.892626 6.59868
upperback -0.231932 2.10845 2.12872
thorax -5.28 0.9271 -1.76799
lowerneck -9.72623 -9.32016 -13.4764
upperneck 20.6286 -12.7394 12.1797
head 9.80744 -5.67423 4.9265
rclavicle 3.23398e-014 -7.15625e-015
rhumerus -30.1643 7.94402 -88.3591
rradius 38.505
rwrist 3.90733
rhand -16.6231 13.5563
rfingers 7.12502
rthumb 9.59897 -16.205
lclavicle 3.23398e-014 -7.15625e-015
lhumerus -39.8234 17.4046 72.8315
lradius 18.0119
lwrist -12.6122
lhand -10.1909 14.1455
lfingers 7.12502
lthumb 15.7998 43.5208
rfemur 13.2684 4.76766 35.1296
rtibia 14.0222
rfoot -13.7593 -12.616
rtoes 0.905858
lfemur -26.9888 -11.5843 -3.54736
ltibia 24.6893
lfoot -13.5004 16.2017
ltoes -8.01925
295
root 11.343 15.6625 -7.26732 -169.798 53.2829 -164.415
lowerback 9.03394 0.886214 6.58091
upperback -0.210607 2.0722 2.05724
thorax -5.14855 0.911882 -1.8227
lowerneck -9.66511 -9.31138 -13.3862
upperneck 20.6567 -12.7486 12.1745
head 9.79998 -5.67239 4.91178
rclavicle -2.25124e-014 8.34896e-015
rhumerus -30.3264 8.17349 -88.571
rradius 38.3955
rwrist 3.72668
rhand -16.843 13.7085
rfingers 7.12502
rthumb 9.38684 -16.0624
lclavicle -2.25124e-014 8.34896e-015
lhumerus -39.9282 17.6956 72.5731
lradius 17.9184
lwrist -13.0307
lhand -9.99739 14.0697
lfingers 7.12502
lthumb 15.9862 43.4301
rfemur 13.5658 4.69695 34.7755
rtibia 14.3481
rfoot -13.5604 -12.3631
rtoes -1.88077
lfemur -26.7839 -11.4818 -3.77872
ltibia 24.9531
lfoot -13.2147 15.8709
ltoes -8.14802
